<?xml version="1.0" encoding="UTF-8"?>
<!DOCTYPE svg PUBLIC "-//W3C//DTD SVG 1.1//EN" "http://www.w3.org/Graphics/SVG/1.1/DTD/svg11.dtd">
<!-- Creator: CorelDRAW 2021 (64-Bit) -->
<svg xmlns="http://www.w3.org/2000/svg" xml:space="preserve" width="211.654mm" height="142.843mm" version="1.1" style="shape-rendering:geometricPrecision; text-rendering:geometricPrecision; image-rendering:optimizeQuality; fill-rule:evenodd; clip-rule:evenodd"
viewBox="0 0 21164.28 14283.6"
 xmlns:xlink="http://www.w3.org/1999/xlink"
 xmlns:xodm="http://www.corel.com/coreldraw/odm/2003">
 <defs>
  <style type="text/css">
   <![CDATA[
    .fil1 {fill:#2B2A29}
    .fil0 {fill:#2B2A29;fill-rule:nonzero}
   ]]>
  </style>
 </defs>
 <g id="Warstwa_x0020_1">
  <metadata id="CorelCorpID_0Corel-Layer"/>
  <g id="_2573811622160">
   <path class="fil0" d="M4954.06 13973.94c-216.92,-187.65 -325.39,-415.69 -325.39,-684.57 0,-268.85 108.47,-496.88 325.39,-684.52 217.36,-187.24 477.05,-281.27 780.33,-281.27 165.36,0 319.67,27.98 462.52,84.42 142.81,59.62 272,146.8 387.53,262.45l-98.35 89.23c-84.2,-124.85 -190.41,-222.06 -317.85,-290.87 -127.4,-65.61 -272.03,-98.42 -433.84,-98.42 -261.9,0 -477,86.05 -645.87,258.06 -168.87,172.04 -253.07,392.1 -253.07,660.95 0,268.89 84.2,489.31 253.07,661.37 168.87,171.64 383.97,257.65 645.87,257.65 163.55,0 308.17,-33.6 433.84,-100.82 127.44,-65.61 233.66,-161.63 317.85,-288.48l98.35 89.23c-115.53,117.23 -244.72,204.05 -387.53,260.09 -139.78,57.99 -293.67,86.82 -462.52,86.82 -303.28,0 -562.97,-93.63 -780.33,-281.27zm2407.04 -1345.52c-165.32,172.04 -247.82,392.1 -247.82,660.95 0,268.89 82.5,489.31 247.82,661.37 165.29,171.64 375.62,257.65 630.47,257.65 254.8,0 465.1,-86.01 630.42,-257.65 165.36,-172.05 247.78,-392.48 247.78,-661.37 0,-268.85 -82.42,-488.9 -247.78,-660.95 -165.32,-172.01 -375.62,-258.06 -630.42,-258.06 -254.85,0 -465.18,86.05 -630.47,258.06zm-139.33 1345.52c-210.27,-187.65 -315.23,-415.69 -315.23,-684.57 0,-268.85 104.96,-496.88 315.23,-684.52 209.86,-187.24 466.91,-281.27 769.8,-281.27 303.28,0 559.86,94.03 769.76,281.27 210.3,187.64 315.23,415.68 315.23,684.52 0,268.89 -104.93,496.92 -315.23,684.57 -209.9,187.64 -466.48,281.27 -769.76,281.27 -302.89,0 -559.94,-93.63 -769.8,-281.27zm2962.59 -1622.39c175.45,0 324.47,44.83 447.03,133.64 118.57,90.81 179.89,208.86 183.4,354.07 -3.51,146.84 -64.83,264.09 -183.4,351.67 -72.29,56.45 -159.62,95.26 -261.01,117.24l599.16 919 -206.79 0 -588.55 -900.19 -455.02 0 0 900.19 -186.02 0 0 -1875.63 651.2 0zm-465.18 47.23l0 881.38 423.71 0c134.46,0 246.45,-37.59 335.96,-112.43 87.71,-72 134.42,-181.62 139.26,-328.46 -4.84,-145.21 -51.56,-255.24 -139.26,-330.45 -91.29,-73.63 -203.28,-110.03 -335.96,-110.03l-423.71 0zm3479.73 -47.23l56.89 0 0 1932.04 -1741.48 -1687.96 0 1631.56 -56.88 0 0 -1931.63 1741.47 1687.99 0 -1632zm730.4 47.23l0 778.16 558.17 0 0 46.83 -558.17 0 0 956.59 682.02 0 0 46.83 -868.07 0 0 -1875.63 868.07 0 0 47.23 -682.02 0zm1821.13 -47.23c175.45,0 324.47,44.83 447.03,133.64 118.6,90.81 179.88,208.86 183.39,354.07 -3.51,146.84 -64.79,264.09 -183.39,351.67 -72.3,56.45 -159.59,95.26 -260.98,117.24l599.16 919 -206.79 0 -588.55 -900.19 -455.02 0 0 900.19 -186.05 0 0 -1875.63 651.2 0zm-465.15 47.23l0 881.38 423.68 0c134.49,0 246.45,-37.59 335.96,-112.43 87.75,-72 134.46,-181.62 139.3,-328.46 -4.84,-145.21 -51.56,-255.24 -139.3,-330.45 -91.26,-73.63 -203.24,-110.03 -335.96,-110.03l-423.68 0z"/>
   <path class="fil0" d="M182.73 10798.06l-182.73 0 0 -1875.64 182.73 0 0 825.39 1106.13 0 0 -825.39 182.7 0 0 1875.64 -182.7 0 0 -1003.43 -1106.13 0 0 1003.43zm2638.6 -1687.99l-385.75 872.21 771.09 0 -385.34 -872.21zm-408.67 919l-339.84 768.99 -55.85 0 872.8 -1969.26 872.36 1969.26 -192.67 0 -339.88 -768.99 -816.93 0zm2077.96 768.99l-182.69 0 0 -1875.64 182.69 0 0 1875.64zm1235.94 -1875.64c172.3,0 318.66,44.84 439.01,133.65 116.46,90.81 176.63,208.86 180.07,354.07 -3.44,146.84 -63.61,264.08 -180.07,351.67 -71,56.44 -156.74,95.25 -256.32,117.24l588.36 919 -203.05 0 -577.94 -900.19 -446.81 0 0 900.19 -182.7 0 0 -1875.64 639.45 0zm-456.75 47.24l0 881.38 416.05 0c132.06,0 242.02,-37.59 329.9,-112.43 86.16,-72 132.02,-181.62 136.79,-328.46 -4.77,-145.21 -50.64,-255.25 -136.79,-330.45 -89.63,-73.63 -199.62,-110.03 -329.9,-110.03l-416.05 0zm5342.57 862.57l0 919.01 487.06 0c147.24,0 267.15,-40.81 360.24,-122 93.07,-79.62 141.96,-192.05 147.17,-337.66 -5.21,-145.25 -54.11,-258.47 -147.17,-339.7 -93.1,-79.62 -213,-119.64 -360.24,-119.64l-487.06 0zm-182.69 965.84l0 -1875.64 558.06 0c186.16,0 341.17,39.22 464.59,117.24 119.89,80.02 181.8,192.45 184.83,337.66 -3.03,146.84 -64.94,258.87 -184.83,335.3 -52.41,34.41 -110.84,60.8 -175.34,79.61 130.28,18.82 241.13,64.02 332.45,136.01 116.9,95.25 176.67,216.48 180.11,363.32 -3.44,145.61 -63.21,265.63 -180.11,361.28 -119.89,96.79 -273.17,145.21 -459.34,145.21l-720.42 0zm182.69 -1828.4l0 815.78 345.1 0c147.17,0 265.37,-33.6 354.99,-100.82 90.04,-65.61 137.23,-168.02 142.45,-307.28 -5.22,-137.6 -52.42,-240.43 -142.45,-309.24 -90.92,-65.64 -209.56,-98.42 -354.99,-98.42l-345.1 0zm1925.61 0l0 778.15 548.15 0 0 46.83 -548.15 0 0 956.6 669.76 0 0 46.83 -852.45 0 0 -1875.64 852.45 0 0 47.24 -669.76 0zm2019.97 140.41l-385.75 872.21 771.1 0 -385.35 -872.21zm-408.66 919l-339.85 768.99 -55.85 0 872.81 -1969.26 872.36 1969.26 -192.68 0 -339.88 -768.99 -816.92 0zm3244.74 -1106.65l0 1266.32c0,204.42 -60.18,362.46 -180.07,473.27 -118.19,109.66 -277.98,164.07 -479.26,164.07 -284.49,0 -495.74,-54.41 -634.27,-164.07 -138.56,-109.21 -208.27,-267.26 -208.27,-473.27l0 -1266.32 182.69 0 0 1266.32c0,187.24 55.88,332.86 167.54,435.68 108.25,103.23 272.32,154.83 492.3,154.83 189.16,0 337.22,-52.42 443.74,-156.82 106.48,-104.82 159.78,-249.67 159.78,-433.69l0 -1266.32 55.81 0zm1976.69 0l0 47.24 -598.75 0 0 1828.4 -182.7 0 0 -1828.4 -598.75 0 0 -47.24 1380.2 0zm1088.28 1013.04l634.27 -1013.04 71 0 -669.75 1069.06 0 806.58 -182.7 0 0 -785.36 -700.05 -1090.28 212.96 0 634.28 1013.04zm-12169.29 -148.54c175.07,-78.88 264.82,-185.72 269.18,-319.85 1.48,-73.81 -18.59,-133.12 -59.8,-177.96 -42.7,-42.13 -101.01,-63.06 -175.45,-63.06 -79.51,0 -140.78,20.93 -183.47,63.06 -45.57,42.14 -67.12,93.7 -64.2,154.01 -1.41,73.81 44.17,160.77 136.78,260.9l76.96 82.91zm33.93 35.41l579.2 616.45c71.48,-126.4 107.58,-269.99 109.02,-430.77l117.83 0c-20.11,163.48 -84.28,319.19 -192.6,468.18l303.43 321.88 -171.04 0 -209.35 -223.13c-143.69,163.14 -324.57,245.38 -542.71,246.71 -202.39,-2.7 -357.77,-42.8 -465.74,-120.3 -109.76,-79.21 -164.84,-180.99 -164.84,-306.06 2.92,-122.67 42.29,-228.52 117.75,-318.15 65.31,-77.54 186.39,-157.07 363.28,-238.98l-70.74 -74.81c-96.61,-105.52 -145.14,-202.91 -145.14,-292.57 2.92,-81.58 38.29,-149.32 106.84,-203.24 71.12,-53.93 159.41,-80.91 264.79,-80.91 97.01,0 179.1,24.28 245.86,72.81 67.08,50.23 100.63,116.64 100.63,199.55 0,80.54 -36.48,152.01 -109.06,215.36 -61.25,55.3 -140.41,104.82 -237.43,147.99zm506.6 720.93l-628.02 -669.38c-106.89,48.53 -188.94,108.51 -245.86,179.62 -71.49,89.67 -106.85,195.52 -106.85,317.86 0,126.39 47.05,225.82 140.78,298.29 94.1,75.15 209.01,112.54 344.28,112.54 195.15,2.7 356.73,-72.44 485.09,-225.12 2.92,-5.07 6.21,-9.8 10.57,-13.83z"/>
   <path class="fil1" d="M11223.89 1701.22l-599.78 599.78 -851.8 -851.91c-51.99,-51.56 -104.39,-103.54 -153.15,-158.81l-22.63 -25.82c-27.92,-30.38 -54.22,-62.26 -78.27,-95.44 -23.28,-32.07 -44.86,-65.99 -64.23,-101.53 -18.7,-34.25 -35.13,-69.7 -48.88,-106 -13.29,-35.13 -24.3,-71.65 -32.61,-109.34 -8.23,-37.17 -13.61,-74.54 -16.1,-111.64 -2.51,-37.76 -2.23,-75.55 0.85,-112.82 3.06,-36.77 9.08,-73.96 17.96,-111 8.72,-36.32 20.2,-71.93 34.31,-106.29 5.92,-14.31 11.8,-27.49 17.57,-39.49 6.02,-12.5 12.76,-25.45 20.11,-38.66 6.53,-11.8 14.03,-24.21 22.34,-37.23 7.19,-11.37 15.31,-23.16 24.22,-35.38 8.65,-11.94 17.48,-23.34 26.39,-34.11 8.93,-10.58 18.33,-21.22 28.25,-31.82 9.68,-10.41 19.69,-20.45 30.01,-30.16 10.7,-9.87 21.19,-19.12 31.54,-27.63 11.06,-9.11 22.38,-17.85 33.8,-26.05 11.91,-8.6 23.62,-16.46 34.96,-23.53 12.45,-7.64 24.64,-14.68 36.55,-20.99 12.3,-6.51 24.69,-12.53 37.08,-17.99 12.7,-5.6 25.46,-10.75 38.21,-15.3 12.08,-4.27 25.01,-8.35 38.84,-12.17 12.61,-3.53 25.82,-6.73 39.34,-9.44 13.21,-2.77 26.53,-4.98 39.8,-6.59 30.07,-3.68 60.36,-4.67 90.54,-3.2 30.44,1.5 60.7,5.71 90.43,12.3 30.32,6.74 59.99,15.99 88.59,27.44 29.05,11.65 57.56,25.8 85.22,42.09 28.82,16.94 56.18,35.98 82.11,56.65 27.04,21.5 52.84,45.09 77.31,70.12 25.42,26 49.52,53.83 72.21,82.77 24.1,30.52 46.56,62.59 67.49,95.26l13.6 22.18c146.48,-179.69 280.95,-337.51 534.59,-377.85 16.77,-3.93 51.28,-5.6 68.48,-6.59 67.35,-5.37 144.53,7.75 217.16,33.27 74.34,26.08 144.67,65.39 195.47,111.23 14.79,12.7 29.11,26.14 42.74,40.17 13.94,14.37 27.15,29.27 39.32,44.52 12.41,15.78 24.12,31.79 34.65,47.97 10.38,15.7 20.33,32.75 29.84,50.91 9.56,18.28 17.99,36.35 25.11,54 7.33,17.99 13.92,36.83 19.66,56.26 5.72,19.32 10.55,38.72 14.31,57.96 3.77,19.14 6.74,39.11 8.83,59.65l2.46 32.64 0.93 32.39 -0.96 32.78 -2.4 32.47 -3.93 32.5c-1.62,10.95 -3.54,21.75 -5.63,32.41 -2.1,10.61 -4.53,21.3 -7.19,31.85l-8.94 31.77c-3.16,10.89 -6.64,21.3 -10.18,31.23l-11.99 30.88c-3.73,9 -8.2,18.9 -13.38,29.73 -5.01,10.72 -10.01,20.56 -14.71,29.25l-16.21 28.03c-5.29,8.68 -11.2,17.73 -17.53,26.98 -6,8.8 -12.31,17.54 -18.76,26 -6.61,8.65 -13.4,17.11 -20.19,25.08 -12.48,14.49 -25.12,28.01 -37.85,40.37 -13.12,12.75 -26.87,24.89 -41.12,36.29 -14.57,11.68 -29.39,22.46 -44.21,32.13 -14.54,9.5 -30.41,18.72 -47.27,27.52 -16.4,8.54 -32.95,16.24 -49.38,22.86 -16.83,6.78 -34.17,12.84 -51.74,18.01 -17.79,5.24 -35.75,9.65 -53.77,13.16 -17.76,3.45 -36.09,6.16 -54.76,8 -148.4,13.1 -260.89,-46.61 -373.74,-137.34l-24.04 -20.59 -23.51 -21.16 -22.91 -22.01 -49.1 -50.88 84.55 -111.18c34.59,37.42 67.54,73.34 104.67,108.35l20.25 17.37 23.17 18.16 21.49 15.58 22.49 14.65 24.86 14.2 22.97 11.74 26.28 11.26 24.94 8.51 26.65 6.73 27.32 4.16 25.06 1.33 26.62 -1.33c16.09,-1.64 31.99,-4.07 47.55,-7.27 14.99,-3.08 30.49,-7.13 46.27,-12.13 14.74,-4.53 29.36,-10.07 43.7,-16.46 13.89,-6.09 27.67,-13.16 41.33,-21.16 12.95,-7.58 25.93,-16.24 38.78,-25.83 12.81,-9.56 24.77,-19.54 35.69,-29.78 11.51,-10.72 22.43,-22.12 32.67,-34.06 10.61,-12.36 20.48,-25.17 29.47,-38.24 5.86,-8.48 11.57,-17.39 17.03,-26.56 5.69,-9.56 10.84,-18.84 15.39,-27.72 4.64,-9.33 9.33,-19.34 13.92,-29.95 3.93,-8.83 7.8,-18.7 11.59,-29.33 3.59,-9.76 7.02,-20.4 10.33,-31.71 3.02,-10.27 5.79,-21.07 8.26,-32.02 2.43,-10.83 4.58,-21.84 6.36,-32.84 1.75,-10.75 3.25,-21.86 4.38,-33.09 1.16,-11.37 1.98,-22.57 2.44,-33.43 0.48,-11.46 0.65,-22.69 0.48,-33.49 -0.14,-10.02 -0.71,-21.22 -1.64,-33.49 -0.91,-11.86 -2.07,-22.97 -3.45,-33.1 -1.36,-9.95 -3.23,-20.87 -5.52,-32.47 -2.32,-11.54 -4.81,-22.32 -7.35,-32.02 -2.92,-10.97 -6.03,-21.44 -9.25,-31.17 -2.97,-8.94 -6.73,-19.03 -11.23,-30.09 -6.68,-16.49 -13.92,-32.05 -21.58,-46.48 -8.46,-15.69 -17.17,-30.2 -26.03,-43.27 -8.99,-13.24 -19.12,-26.45 -30.18,-39.43 -10.66,-12.5 -22.06,-24.41 -33.97,-35.58 -11.93,-11.18 -24.49,-21.67 -37.39,-31.26 -12.78,-9.5 -26.64,-18.64 -41.41,-27.27 -13.94,-8.28 -28.96,-16.01 -44.77,-23.11 -15.22,-6.84 -31.32,-13.04 -47.84,-18.49 -61.29,-20.28 -119.04,-25.12 -183.39,-21.9l-29.47 3.74 -32.16 6.19 -31.51 7.89 -26.93 8.6 -30.01 11.74 -28.31 13.12 -25.29 13.81 -27.43 17.28 -26.34 18.75 -26.64 20.28 -25.86 20.82 -23.9 20.59 -20.16 19.6 -17.74 18.5 -18.19 20.88 -332.61 399.28 -430.68 522.17 -87.48 107.44 703.78 699.09 526.35 -526.33 108.64 78.63 -40.34 40.54zm-1402.45 -388.71l664.62 -792.42 -6.31 -10.84c-15.53,-26.78 -32.78,-53.96 -51.65,-81.09 -18.44,-26.5 -37.96,-52.19 -58.49,-76.37 -20.59,-24.24 -42.37,-47.29 -65.26,-68.59 -22.63,-21.04 -46.81,-40.79 -72.44,-58.64 -22.23,-15.5 -45.17,-29.16 -68.47,-40.67 -22.91,-11.31 -46.39,-20.76 -70.07,-28 -22.45,-6.82 -45.99,-11.88 -70.43,-14.85 -23.25,-2.83 -46.78,-3.65 -70.23,-2.29 -10.72,0.62 -21.47,1.75 -32.07,3.25 -10.87,1.56 -21.5,3.51 -31.71,5.83 -10.49,2.43 -21.19,5.31 -31.71,8.62 -11.09,3.54 -21.67,7.3 -31.4,11.23 -9.9,3.96 -20.13,8.6 -30.49,13.75 -10.32,5.03 -20.31,10.46 -29.92,16.21 -10.61,6.36 -20.31,12.61 -29.08,18.72 -9.48,6.62 -18.89,13.75 -28.17,21.27 -8.77,7.1 -17.6,14.77 -26.25,22.83 -8.66,8.06 -17.06,16.43 -25.09,24.97 -8.48,9 -16.43,18.02 -23.76,26.87 -8.12,9.96 -15.47,19.44 -21.95,28.4 -7.01,9.82 -13.86,19.92 -20.39,30.24 -6.65,10.49 -12.96,21.13 -18.78,31.74 -6.11,11.14 -11.77,22.2 -16.89,33 -5.32,11.21 -10.27,22.46 -14.74,33.69 -11.45,28.8 -20.73,58.44 -27.72,88.56 -7.07,30.55 -11.9,61.55 -14.36,92.75 -2.49,31.51 -2.66,63.19 -0.54,94.47 2.15,31.51 6.59,62.57 13.21,92.69 6.79,30.66 15.89,60.82 27.04,90.32 11.43,30.23 25,59.51 40.33,87.57 15.76,28.79 33.75,56.91 53.63,84.03 20.34,27.81 42.57,54.42 66.27,79.63 14.68,15.89 41.92,42 53.38,58.18 23.14,25.31 45.73,50.18 69.86,74.98z"/>
   <path class="fil1" d="M6997.35 2054.43l419.09 2014.94c178.78,859.47 709.08,1525.3 1481.17,1925.8 1775.96,921.25 4406.09,210.04 4850.28,-1925.8l419.09 -2014.94 -98.98 20.59c-198.55,41.28 -397.98,77.91 -597.46,114.46 -1119.54,205.12 -2127.15,396.58 -2867.3,1351.06l-18.56 23.92 -18.18 -24.21c-47.05,-62.65 -98.38,-122.08 -154.49,-177.74 -731.44,-809.09 -1696.38,-985.8 -2718.21,-1173 -199.48,-36.55 -398.95,-73.18 -597.5,-114.49l-98.94 -20.59zm4901.81 3197.94l855.48 257.54c438.08,-374.14 739.63,-872.13 863.49,-1467.52l345.91 -1663 -66.39 100.34c-632.45,956.11 -1296.62,1874.6 -1998.49,2772.65zm732.61 356.52l-818.84 -246.53c-170.35,216.59 -342.88,432.03 -517.73,646.55 -48.16,59.06 -99.09,90.03 -168.06,118.52l-14.01 5.8 -1.48 88.56 26.99 -4.02c370.55,-55.52 734.5,-167.73 1067.47,-340.44 151.97,-78.84 294.19,-168.53 425.66,-268.44zm-30.71 -3106.59l-677.03 2502.44c680.39,-879.08 1324.83,-1778.8 1939.1,-2713.81l29.98 -45.61 -53.6 10.23c-114.9,21.96 -230,43.06 -345.09,64.13 -306.76,56.22 -605.92,111.51 -893.35,182.62zm-882.41 2765.78l-0.74 -0.18 738.08 -2727.97c-687.96,186.79 -1302.57,483.39 -1784.09,1129.23l-9.27 12.46 8.02 13.3c171.19,283.6 273.58,612.76 337.14,936.23 85.16,433.58 107.33,883.89 106.74,1324.86l-0.08 65.06 77.96 -95.66c177.77,-218.07 353.15,-437.09 526.23,-657.34zm-1918.29 89.6l-1149.08 336.63c97.23,66.27 199.62,127.36 306.94,183.02 497.41,257.98 1065.07,381.8 1623.95,381.8 85.46,0 170.9,-2.92 256.17,-8.69l64.5 -4.36 -52.63 -37.52c-108.03,-76.95 -214,-157.37 -318.48,-239.02 -247.49,-193.41 -491.79,-397.98 -731.36,-611.87zm-1282.14 240.24l1168.86 -342.43c-910.95,-829.72 -1748.53,-1791.67 -2422.2,-2783.71l-65.46 -96.39 346.8 1667c133.83,643.33 475.16,1173.03 972,1555.53zm671.83 -2883.16l685.67 2532.78c241.5,216.11 487.83,422.64 737.42,617.71 108.62,84.94 219.07,168.43 331.75,247.93l35.89 25.32 0.52 -43.94c5.58,-477.83 -11.5,-967.98 -103.85,-1437.97 -215.29,-1095.86 -865.27,-1626.83 -1687.4,-1941.83zm506.71 2370.09l-656.37 -2424.49c-530.74,-183.1 -1123.65,-288.65 -1712.98,-404.05l-54.37 -10.64 30.72 46.09c661.99,994.26 1489.7,1958.76 2393,2793.09z"/>
  </g>
 </g>
</svg>
