<?xml version="1.0" encoding="utf-8"?>
<!-- Generator: Adobe Illustrator 22.0.0, SVG Export Plug-In . SVG Version: 6.00 Build 0)  -->
<svg version="1.1" id="Layer_1" xmlns="http://www.w3.org/2000/svg" xmlns:xlink="http://www.w3.org/1999/xlink" x="0px" y="0px"
	 viewBox="0 0 90 90" style="enable-background:new 0 0 90 90;" xml:space="preserve">
<style type="text/css">
	.st0{fill:none;stroke:#7F4EB6;stroke-width:3;stroke-linecap:round;stroke-linejoin:round;stroke-miterlimit:10;}
</style>
<g id="Black_12_">
	<g>
		<polyline class="st0" points="45,30 31.5,57 42,69 		"/>
		<polyline class="st0" points="45,30 58.5,57 48,69 		"/>
		<rect x="36" y="69" class="st0" width="18" height="9"/>
		<line class="st0" x1="45" y1="54" x2="45" y2="30"/>
		
			<rect x="40.76" y="13.76" transform="matrix(0.7071 -0.7071 0.7071 0.7071 0.4523 37.092)" class="st0" width="8.48" height="8.48"/>
		
			<rect x="13.76" y="40.759" transform="matrix(0.7071 -0.7071 0.7071 0.7071 -26.5472 25.908)" class="st0" width="8.48" height="8.48"/>
		<line class="st0" x1="42" y1="21" x2="21" y2="42"/>
		
			<rect x="67.76" y="40.76" transform="matrix(0.7071 -0.7071 0.7071 0.7071 -10.7319 64.0916)" class="st0" width="8.48" height="8.48"/>
		<line class="st0" x1="48" y1="21" x2="69" y2="42"/>
	</g>
</g>
</svg>
