<?xml version="1.0" encoding="utf-8"?>
<!-- Generator: Adobe Illustrator 22.0.0, SVG Export Plug-In . SVG Version: 6.00 Build 0)  -->
<svg version="1.1" id="Layer_1" xmlns="http://www.w3.org/2000/svg" xmlns:xlink="http://www.w3.org/1999/xlink" x="0px" y="0px"
	 viewBox="0 0 90 90" style="enable-background:new 0 0 90 90;" xml:space="preserve">
<style type="text/css">
	.st0{fill:none;stroke:#7F4EB6;stroke-width:3;stroke-linecap:round;stroke-linejoin:round;stroke-miterlimit:10;}
</style>
<g id="Black_5_">
	<g>
		<line class="st0" x1="46.5" y1="39" x2="43.5" y2="39"/>
		<polyline class="st0" points="10.5,39 16.5,12 73.5,12 79.5,39 		"/>
		<polyline class="st0" points="10.5,78 13.5,69 12,58.5 15,42 18,42 18,55.5 24,36 28.5,36 25.5,55.5 33,36 37.5,36 31.5,60 
			39,55.5 42,57 30,72 28.5,78 		"/>
		<polyline class="st0" points="79.5,78 76.5,69 78,58.5 75,42 72,42 72,55.5 66,36 61.5,36 64.5,55.5 57,36 52.5,36 58.5,60 
			51,55.5 48,57 60,72 61.5,78 		"/>
		<line class="st0" x1="25.5" y1="21" x2="27" y2="21"/>
		<line class="st0" x1="33" y1="21" x2="34.5" y2="21"/>
		<line class="st0" x1="40.5" y1="21" x2="42" y2="21"/>
		<line class="st0" x1="48" y1="21" x2="49.5" y2="21"/>
		<line class="st0" x1="55.5" y1="21" x2="57" y2="21"/>
		<line class="st0" x1="63" y1="21" x2="64.5" y2="21"/>
		<line class="st0" x1="22.5" y1="27" x2="24" y2="27"/>
		<line class="st0" x1="30" y1="27" x2="31.5" y2="27"/>
		<line class="st0" x1="37.5" y1="27" x2="39" y2="27"/>
		<line class="st0" x1="45" y1="27" x2="46.5" y2="27"/>
		<line class="st0" x1="52.5" y1="27" x2="54" y2="27"/>
		<line class="st0" x1="60" y1="27" x2="61.5" y2="27"/>
		<line class="st0" x1="67.5" y1="27" x2="69" y2="27"/>
	</g>
</g>
</svg>
