<?xml version="1.0" encoding="utf-8"?>
<!-- Generator: Adobe Illustrator 22.0.0, SVG Export Plug-In . SVG Version: 6.00 Build 0)  -->
<svg version="1.1" id="Layer_1" xmlns="http://www.w3.org/2000/svg" xmlns:xlink="http://www.w3.org/1999/xlink" x="0px" y="0px"
	 viewBox="0 0 90 90" style="enable-background:new 0 0 90 90;" xml:space="preserve">
<style type="text/css">
	.st0{fill:none;stroke:#7F4EB6;stroke-width:3;stroke-linecap:round;stroke-linejoin:round;stroke-miterlimit:10;}
	.st1{fill:none;stroke:#7F4EB6;stroke-width:3;stroke-linejoin:round;stroke-miterlimit:10;}
	.st2{fill:none;stroke:#7F4EB6;stroke-width:3;stroke-linecap:round;stroke-miterlimit:10;}
</style>
<g id="Black_13_">
	<g>
		<polyline class="st0" points="39.75,31.5 15.75,31.5 15.75,61.5 		"/>
		<line class="st0" x1="63.75" y1="61.5" x2="63.75" y2="58.5"/>
		<polygon class="st0" points="68.25,76.5 63.75,61.5 15.75,61.5 11.25,76.5 		"/>
		<line class="st0" x1="36.75" y1="70.5" x2="39.75" y2="70.5"/>
		<polyline class="st0" points="39.75,46.5 27.75,46.5 27.75,40.5 39.75,40.5 		"/>
		<line class="st0" x1="57.75" y1="19.5" x2="57.75" y2="13.5"/>
		<line class="st0" x1="65.25" y1="21" x2="68.25" y2="18"/>
		<line class="st0" x1="50.25" y1="21" x2="47.25" y2="18"/>
		<g>
			<polygon class="st1" points="45.75,33.75 57.75,27 69.75,33.75 69.75,47.25 57.75,54 45.75,47.25 			"/>
			<g>
				<line class="st2" x1="78.75" y1="52.5" x2="69.75" y2="47.26"/>
			</g>
		</g>
	</g>
</g>
</svg>
