<?xml version="1.0" encoding="UTF-8"?>
<!DOCTYPE svg PUBLIC "-//W3C//DTD SVG 1.1//EN" "http://www.w3.org/Graphics/SVG/1.1/DTD/svg11.dtd">
<svg xmlns="http://www.w3.org/2000/svg" version="1.1" width="285px" height="128px" style="shape-rendering:geometricPrecision; text-rendering:geometricPrecision; image-rendering:optimizeQuality; fill-rule:evenodd; clip-rule:evenodd" xmlns:xlink="http://www.w3.org/1999/xlink">
<g><path style="opacity:1" fill="#7716f7" d="M -0.5,-0.5 C 94.5,-0.5 189.5,-0.5 284.5,-0.5C 284.5,42.1667 284.5,84.8333 284.5,127.5C 189.5,127.5 94.5,127.5 -0.5,127.5C -0.5,84.8333 -0.5,42.1667 -0.5,-0.5 Z"/></g>
<g><path style="opacity:1" fill="#f9f5fe" d="M 167.5,68.5 C 168.496,54.3431 168.829,40.0097 168.5,25.5C 169.5,25.5 170.5,25.5 171.5,25.5C 171.5,43.5 171.5,61.5 171.5,79.5C 150.646,58.4796 129.979,37.313 109.5,16C 111.579,15.1923 113.579,15.359 115.5,16.5C 132.881,34.5481 150.215,51.8814 167.5,68.5 Z"/></g>
<g><path style="opacity:1" fill="#fbf8fe" d="M 123.5,102.5 C 124.167,90.1667 124.833,77.8333 125.5,65.5C 125.833,66.5 126.5,67.1667 127.5,67.5C 127.5,80.1667 127.5,92.8333 127.5,105.5C 123.5,105.5 119.5,105.5 115.5,105.5C 115.169,84.6599 115.503,63.9933 116.5,43.5C 135.221,62.5536 153.888,81.5536 172.5,100.5C 173.635,102.213 175.302,102.88 177.5,102.5C 177.831,74.6616 177.498,46.995 176.5,19.5C 172.167,19.5 167.833,19.5 163.5,19.5C 162.833,31.8333 162.167,44.1667 161.5,56.5C 161.217,55.7109 160.717,55.0442 160,54.5C 159.5,41.5043 159.333,28.5043 159.5,15.5C 166.5,15.5 173.5,15.5 180.5,15.5C 180.5,45.8333 180.5,76.1667 180.5,106.5C 177.813,106.664 175.146,106.497 172.5,106C 154.665,88.4984 137.165,70.6651 120,52.5C 118.516,69.0121 118.016,85.6787 118.5,102.5C 120.167,102.5 121.833,102.5 123.5,102.5 Z"/></g>
<g><path style="opacity:1" fill="#f3eafe" d="M 194.5,15.5 C 212.836,15.3334 231.17,15.5001 249.5,16C 235.888,42.057 222.388,68.2236 209,94.5C 207.484,97.0062 205.318,97.8395 202.5,97C 216.136,71.209 229.469,45.3756 242.5,19.5C 226.5,19.5 210.5,19.5 194.5,19.5C 194.5,18.1667 194.5,16.8333 194.5,15.5 Z"/></g>
<g><path style="opacity:1" fill="#f8f3fe" d="M 254.5,15.5 C 256.199,15.3398 257.866,15.5065 259.5,16C 245.883,41.6846 232.549,67.518 219.5,93.5C 227.5,93.5 235.5,93.5 243.5,93.5C 243.5,94.8333 243.5,96.1667 243.5,97.5C 233.5,97.5 223.5,97.5 213.5,97.5C 226.621,69.9254 240.287,42.5921 254.5,15.5 Z"/></g>
<g><path style="opacity:1" fill="#b37bfb" d="M 163.5,19.5 C 163.832,32.1842 163.499,44.8508 162.5,57.5C 161.893,57.3764 161.56,57.0431 161.5,56.5C 162.167,44.1667 162.833,31.8333 163.5,19.5 Z"/></g>
<g><path style="opacity:1" fill="#974bf9" d="M 176.5,19.5 C 177.498,46.995 177.831,74.6616 177.5,102.5C 175.302,102.88 173.635,102.213 172.5,100.5C 173.583,100.539 174.583,100.873 175.5,101.5C 176.5,74.1748 176.833,46.8415 176.5,19.5 Z"/></g>
<g><path style="opacity:1" fill="#faf7fe" d="M 106.5,20.5 C 128.105,42.2734 149.605,64.2734 171,86.5C 171.667,88.1667 171.667,89.8333 171,91.5C 150.626,71.2926 130.459,50.9593 110.5,30.5C 109.5,55.8246 109.167,81.1579 109.5,106.5C 108.5,106.5 107.5,106.5 106.5,106.5C 106.5,77.8333 106.5,49.1667 106.5,20.5 Z"/></g>
<g><path style="opacity:1" fill="#f8f2fe" d="M 196.5,99.5 C 195.733,100.172 195.066,101.005 194.5,102C 212.83,102.5 231.164,102.667 249.5,102.5C 249.818,97.9677 249.485,93.6344 248.5,89.5C 241.679,88.6715 234.679,88.1715 227.5,88C 228.357,87.3109 229.023,86.4776 229.5,85.5C 237.138,84.5025 244.804,84.1692 252.5,84.5C 252.5,91.5 252.5,98.5 252.5,105.5C 231.327,105.831 210.327,105.497 189.5,104.5C 202.362,79.2771 215.362,54.1104 228.5,29C 218.994,27.363 209.328,27.0296 199.5,28C 198.199,29.6155 198.199,31.1155 199.5,32.5C 206.167,33.1667 212.833,33.8333 219.5,34.5C 211.567,36.4684 203.234,37.135 194.5,36.5C 194.5,32.5 194.5,28.5 194.5,24.5C 207.837,24.3334 221.171,24.5001 234.5,25C 221.95,49.9335 209.284,74.7668 196.5,99.5 Z"/></g>
<g><path style="opacity:1" fill="#994ff9" d="M 171.5,79.5 C 171.5,61.5 171.5,43.5 171.5,25.5C 170.5,25.5 169.5,25.5 168.5,25.5C 168.829,40.0097 168.496,54.3431 167.5,68.5C 167.5,53.8333 167.5,39.1667 167.5,24.5C 169.167,24.5 170.833,24.5 172.5,24.5C 172.832,43.5769 172.499,61.9102 171.5,79.5 Z"/></g>
<g><path style="opacity:1" fill="#a96afa" d="M 199.5,32.5 C 206.532,32.1697 213.532,32.503 220.5,33.5C 220.376,34.1067 220.043,34.44 219.5,34.5C 212.833,33.8333 206.167,33.1667 199.5,32.5 Z"/></g>
<g><path style="opacity:1" fill="#fefefe" d="M 23.5,39.5 C 42.5,39.5 61.5,39.5 80.5,39.5C 80.5,51.5 80.5,63.5 80.5,75.5C 61.5,75.5 42.5,75.5 23.5,75.5C 23.5,63.5 23.5,51.5 23.5,39.5 Z"/></g>
<g><path style="opacity:1" fill="#7a1ef7" d="M 26.5,41.5 C 43.5033,41.3334 60.5033,41.5001 77.5,42C 78.652,52.0895 78.8186,62.2562 78,72.5C 60.9072,73.6581 43.7405,73.8247 26.5,73C 25.1778,62.5001 25.1778,52.0001 26.5,41.5 Z"/></g>
<g><path style="opacity:1" fill="#a96afa" d="M 116.5,43.5 C 115.503,63.9933 115.169,84.6599 115.5,105.5C 119.5,105.5 123.5,105.5 127.5,105.5C 127.5,92.8333 127.5,80.1667 127.5,67.5C 128.495,80.3226 128.829,93.3226 128.5,106.5C 123.833,106.5 119.167,106.5 114.5,106.5C 114.167,85.1563 114.5,63.8229 115.5,42.5C 116.107,42.6236 116.44,42.9569 116.5,43.5 Z"/></g>
<g><path style="opacity:1" fill="#a25ffa" d="M 125.5,65.5 C 124.833,77.8333 124.167,90.1667 123.5,102.5C 123.168,89.8158 123.501,77.1492 124.5,64.5C 125.107,64.6236 125.44,64.9569 125.5,65.5 Z"/></g>
<g><path style="opacity:1" fill="#bd82fc" d="M 18.5,78.5 C 41.5905,78.0208 64.5905,78.5208 87.5,80C 63.5,80.6667 39.5,80.6667 15.5,80C 16.7375,79.7679 17.7375,79.2679 18.5,78.5 Z"/></g>
<g><path style="opacity:1" fill="#8f3ef8" d="M 248.5,89.5 C 249.485,93.6344 249.818,97.9677 249.5,102.5C 231.164,102.667 212.83,102.5 194.5,102C 195.066,101.005 195.733,100.172 196.5,99.5C 213.468,101.486 230.801,102.153 248.5,101.5C 248.5,97.5 248.5,93.5 248.5,89.5 Z"/></g>
<g><path style="opacity:1" fill="#d0aefc" d="M 189.5,104.5 C 210.327,105.497 231.327,105.831 252.5,105.5C 231.33,106.828 209.996,106.828 188.5,105.5C 188.624,104.893 188.957,104.56 189.5,104.5 Z"/></g>
</svg>
