<?xml version="1.0" encoding="UTF-8"?>
<!DOCTYPE svg PUBLIC "-//W3C//DTD SVG 1.1//EN" "http://www.w3.org/Graphics/SVG/1.1/DTD/svg11.dtd">
<svg xmlns="http://www.w3.org/2000/svg" version="1.1" width="351px" height="196px" style="shape-rendering:geometricPrecision; text-rendering:geometricPrecision; image-rendering:optimizeQuality; fill-rule:evenodd; clip-rule:evenodd" xmlns:xlink="http://www.w3.org/1999/xlink">
<g><path style="opacity:1" fill="#fefdfe" d="M -0.5,-0.5 C 116.5,-0.5 233.5,-0.5 350.5,-0.5C 350.5,64.8333 350.5,130.167 350.5,195.5C 233.5,195.5 116.5,195.5 -0.5,195.5C -0.5,130.167 -0.5,64.8333 -0.5,-0.5 Z"/></g>
<g><path style="opacity:1" fill="#7b20f7" d="M 214.5,46.5 C 214.831,70.3392 214.498,94.0059 213.5,117.5C 186.313,90.1465 159.313,62.6465 132.5,35C 135.167,34.3333 137.833,34.3333 140.5,35C 163,57.5 185.5,80 208,102.5C 208.5,83.8363 208.667,65.1696 208.5,46.5C 210.5,46.5 212.5,46.5 214.5,46.5 Z"/></g>
<g><path style="opacity:1" fill="#7c22f7" d="M 147.5,83.5 C 147.44,82.9569 147.107,82.6236 146.5,82.5C 145.172,103.663 145.172,124.663 146.5,145.5C 148.167,145.5 149.833,145.5 151.5,145.5C 151.333,129.163 151.5,112.83 152,96.5C 153.667,98.1667 155.333,99.8333 157,101.5C 157.5,118.163 157.667,134.83 157.5,151.5C 151.5,151.5 145.5,151.5 139.5,151.5C 139.333,123.498 139.5,95.498 140,67.5C 165.833,93.3333 191.667,119.167 217.5,145C 218.448,145.483 219.448,145.649 220.5,145.5C 220.5,110.5 220.5,75.5 220.5,40.5C 214.833,40.5 209.167,40.5 203.5,40.5C 202.833,56.5 202.167,72.5 201.5,88.5C 200.685,87.1634 199.518,86.1634 198,85.5C 197.5,68.5033 197.333,51.5033 197.5,34.5C 207.167,34.5 216.833,34.5 226.5,34.5C 226.5,73.5 226.5,112.5 226.5,151.5C 222.486,151.666 218.486,151.499 214.5,151C 191.965,128.632 169.632,106.132 147.5,83.5 Z"/></g>
<g><path style="opacity:1" fill="#7a1df7" d="M 242.5,34.5 C 266.836,34.3334 291.169,34.5 315.5,35C 297.206,69.7546 279.039,104.588 261,139.5C 258.534,140.777 256.034,140.777 253.5,139.5C 270.931,106.809 288.264,73.9753 305.5,41C 284.503,40.5 263.503,40.3334 242.5,40.5C 242.5,38.5 242.5,36.5 242.5,34.5 Z"/></g>
<g><path style="opacity:1" fill="#7a1ef7" d="M 277.5,132.5 C 276.957,132.56 276.624,132.893 276.5,133.5C 286.812,134.499 297.145,134.832 307.5,134.5C 307.5,136.167 307.5,137.833 307.5,139.5C 293.99,139.829 280.656,139.496 267.5,138.5C 285.362,103.943 303.362,69.4435 321.5,35C 323.833,34.3333 326.167,34.3333 328.5,35C 311.347,67.4748 294.347,99.9748 277.5,132.5 Z"/></g>
<g><path style="opacity:1" fill="#7c20f7" d="M 128.5,39.5 C 157.493,67.6599 185.993,96.3266 214,125.5C 214.667,128.5 214.667,131.5 214,134.5C 188.083,107.582 161.749,80.915 135,54.5C 134.5,86.8316 134.333,119.165 134.5,151.5C 132.5,151.5 130.5,151.5 128.5,151.5C 128.5,114.167 128.5,76.8333 128.5,39.5 Z"/></g>
<g><path style="opacity:1" fill="#a96afa" d="M 203.5,40.5 C 203.667,57.17 203.5,73.8367 203,90.5C 202.283,89.9558 201.783,89.2891 201.5,88.5C 202.167,72.5 202.833,56.5 203.5,40.5 Z"/></g>
<g><path style="opacity:1" fill="#791bf7" d="M 313.5,129.5 C 304.287,129.156 295.287,128.156 286.5,126.5C 286.804,125.85 287.137,125.183 287.5,124.5C 298.146,123.501 308.813,123.168 319.5,123.5C 319.5,132.833 319.5,142.167 319.5,151.5C 291.165,151.667 262.831,151.5 234.5,151C 252.136,118.232 269.469,85.3989 286.5,52.5C 273.851,51.5009 261.184,51.1676 248.5,51.5C 248.5,53.1667 248.5,54.8333 248.5,56.5C 258.506,56.3335 268.506,56.5002 278.5,57C 277.54,58.4194 276.707,59.9194 276,61.5C 264.915,62.4874 253.748,62.8207 242.5,62.5C 242.5,56.8333 242.5,51.1667 242.5,45.5C 260.512,45.1671 278.512,45.5005 296.5,46.5C 279.549,79.5705 262.216,112.404 244.5,145C 267.498,145.5 290.498,145.667 313.5,145.5C 313.5,140.167 313.5,134.833 313.5,129.5 Z"/></g>
<g><path style="opacity:1" fill="#eddffd" d="M 214.5,46.5 C 215.829,70.3367 215.829,94.3367 214.5,118.5C 213.893,118.376 213.56,118.043 213.5,117.5C 214.498,94.0059 214.831,70.3392 214.5,46.5 Z"/></g>
<g><path style="opacity:1" fill="#8028f7" d="M 20.5,64.5 C 45.8333,64.5 71.1667,64.5 96.5,64.5C 96.5,80.5 96.5,96.5 96.5,112.5C 71.1667,112.5 45.8333,112.5 20.5,112.5C 20.5,96.5 20.5,80.5 20.5,64.5 Z"/></g>
<g><path style="opacity:1" fill="#b67ffb" d="M 25.5,69.5 C 47.6604,68.5026 69.9938,68.1692 92.5,68.5C 92.8288,81.6774 92.4955,94.6774 91.5,107.5C 91.5,94.8333 91.5,82.1667 91.5,69.5C 69.5,69.5 47.5,69.5 25.5,69.5 Z"/></g>
<g><path style="opacity:1" fill="#fefefe" d="M 25.5,69.5 C 47.5,69.5 69.5,69.5 91.5,69.5C 91.5,82.1667 91.5,94.8333 91.5,107.5C 69.5,107.5 47.5,107.5 25.5,107.5C 25.5,94.8333 25.5,82.1667 25.5,69.5 Z"/></g>
<g><path style="opacity:1" fill="#caa4fb" d="M 147.5,83.5 C 146.503,103.993 146.169,124.66 146.5,145.5C 145.172,124.663 145.172,103.663 146.5,82.5C 147.107,82.6236 147.44,82.9569 147.5,83.5 Z"/></g>
<g><path style="opacity:1" fill="#7715f7" d="M 16.5,114.5 C 44.1687,114.333 71.8353,114.5 99.5,115C 101.788,115.822 104.122,116.489 106.5,117C 74.5,117.667 42.5,117.667 10.5,117C 12.7226,116.434 14.7226,115.6 16.5,114.5 Z"/></g>
<g><path style="opacity:1" fill="#9246f8" d="M 8.5,120.5 C 41.6641,119.336 74.9975,119.169 108.5,120C 108.043,120.414 107.709,120.914 107.5,121.5C 91.1667,121.833 74.8333,122.167 58.5,122.5C 41.6142,122.486 24.9475,121.819 8.5,120.5 Z"/></g>
<g><path style="opacity:1" fill="#a96afa" d="M 286.5,126.5 C 295.287,128.156 304.287,129.156 313.5,129.5C 304.167,129.5 294.833,129.5 285.5,129.5C 285.263,128.209 285.596,127.209 286.5,126.5 Z"/></g>
<g><path style="opacity:1" fill="#cba5fb" d="M 277.5,132.5 C 287.5,133.167 297.5,133.833 307.5,134.5C 297.145,134.832 286.812,134.499 276.5,133.5C 276.624,132.893 276.957,132.56 277.5,132.5 Z"/></g>
<g><path style="opacity:1" fill="#a869f9" d="M 267.5,138.5 C 280.656,139.496 293.99,139.829 307.5,139.5C 293.994,140.826 280.328,140.826 266.5,139.5C 266.624,138.893 266.957,138.56 267.5,138.5 Z"/></g>
</svg>
