<svg xmlns="http://www.w3.org/2000/svg" viewBox="0 0 455.77 127.76"><defs><style>.cls-1,.cls-3{fill:#1a1a18;}.cls-2{fill:red;}.cls-2,.cls-3{fill-rule:evenodd;}</style></defs><title>PS logo</title><g id="Warstwa_2" data-name="Warstwa 2"><g id="Warstwa_1-2" data-name="Warstwa 1"><path class="cls-1" d="M126.88,63.67h3l14.09,27-.91-.15V63.67h3.09V95H143.1L128.87,67.9l1.1.32V95h-3.09ZM111.77,92.39a7.07,7.07,0,0,0,3.41-.78,5.06,5.06,0,0,0,2.15-2.26,7.92,7.92,0,0,0,.73-3.57V72.93a8,8,0,0,0-.73-3.58,5.08,5.08,0,0,0-2.15-2.27,7.91,7.91,0,0,0-6.81,0,5.16,5.16,0,0,0-2.16,2.27,8,8,0,0,0-.75,3.58V85.78a7.91,7.91,0,0,0,.75,3.57,5.13,5.13,0,0,0,2.16,2.26A7,7,0,0,0,111.77,92.39Zm0,3a10.5,10.5,0,0,1-5.08-1.14,7.57,7.57,0,0,1-3.22-3.33,11.44,11.44,0,0,1-1.11-5.25V73.08a11.45,11.45,0,0,1,1.11-5.26,7.55,7.55,0,0,1,3.22-3.32,11.8,11.8,0,0,1,10.16,0,7.49,7.49,0,0,1,3.22,3.32,11.58,11.58,0,0,1,1.1,5.26V85.64a11.57,11.57,0,0,1-1.1,5.25,7.52,7.52,0,0,1-3.22,3.33A10.53,10.53,0,0,1,111.77,95.36ZM97,78.58v6.88a12.8,12.8,0,0,1-1,5.45,7.22,7.22,0,0,1-3.1,3.33,10.58,10.58,0,0,1-5.11,1.12,11.28,11.28,0,0,1-5.17-1.06,6.9,6.9,0,0,1-3.15-3.12A11.15,11.15,0,0,1,78.33,86V73.23a12.67,12.67,0,0,1,1-5.43,7.17,7.17,0,0,1,3.11-3.32,10.45,10.45,0,0,1,5.1-1.13,10.07,10.07,0,0,1,4.79,1,7.21,7.21,0,0,1,3,3.09,13.25,13.25,0,0,1,1.31,5.19H93.34a10.45,10.45,0,0,0-.91-3.55A4.88,4.88,0,0,0,90.51,67a5.7,5.7,0,0,0-2.93-.7,6.8,6.8,0,0,0-3.37.77,5,5,0,0,0-2.08,2.32,9.39,9.39,0,0,0-.7,3.83V86a7.7,7.7,0,0,0,.72,3.51,4.68,4.68,0,0,0,2.11,2.13,7.34,7.34,0,0,0,3.45.73,6.78,6.78,0,0,0,3.35-.76,4.78,4.78,0,0,0,2-2.27,9.3,9.3,0,0,0,.69-3.83V81.47H87.71V78.58ZM72.07,95H69V63.67h3.11Zm-22.26-2.9H64.2V95H49.81Zm-2.2-28.47h3.11V95H47.61ZM32.49,92.39a7.11,7.11,0,0,0,3.42-.78,5,5,0,0,0,2.14-2.26,7.92,7.92,0,0,0,.74-3.57V72.93a8,8,0,0,0-.74-3.58,5.06,5.06,0,0,0-2.14-2.27,7.11,7.11,0,0,0-3.42-.77,7.06,7.06,0,0,0-3.4.77,5.21,5.21,0,0,0-2.16,2.27,8,8,0,0,0-.74,3.58V85.78a7.92,7.92,0,0,0,.74,3.57,5.19,5.19,0,0,0,2.16,2.26A7.06,7.06,0,0,0,32.49,92.39Zm0,3a10.5,10.5,0,0,1-5.08-1.14,7.68,7.68,0,0,1-3.22-3.33,11.57,11.57,0,0,1-1.11-5.25V73.08a11.58,11.58,0,0,1,1.11-5.26,7.65,7.65,0,0,1,3.22-3.32,10.39,10.39,0,0,1,5.08-1.15,10.49,10.49,0,0,1,5.09,1.15,7.47,7.47,0,0,1,3.21,3.32,11.45,11.45,0,0,1,1.1,5.26V85.64a11.44,11.44,0,0,1-1.1,5.25,7.49,7.49,0,0,1-3.21,3.33A10.6,10.6,0,0,1,32.49,95.36ZM0,63.67H3.11V95H0ZM2.27,80h8.37a4.6,4.6,0,0,0,2.42-.63,4.2,4.2,0,0,0,1.61-1.8,6.2,6.2,0,0,0,.56-2.72v-3A6.47,6.47,0,0,0,14.67,69a4.26,4.26,0,0,0-1.59-1.81,4.64,4.64,0,0,0-2.44-.63H2.27v-2.9h8.21a8.34,8.34,0,0,1,4.16,1,6.63,6.63,0,0,1,2.74,2.81,9.18,9.18,0,0,1,.95,4.32v3.06a9,9,0,0,1-.95,4.26,6.73,6.73,0,0,1-2.74,2.78,8.45,8.45,0,0,1-4.16,1H2.27Z"/><path class="cls-1" d="M455.77,95h-3.11V63.66h3.11Zm-18.5-16.73,1.88-3.22L449,95h-3.69Zm-8.76-14.63h3.1V95h-3.1Zm2,20,13.53-20h3.75L431.31,87.43ZM414.39,95.35a9.54,9.54,0,0,1-4.86-1.19,7.83,7.83,0,0,1-3.15-3.41,11.79,11.79,0,0,1-1.1-5.26V73.22a11.8,11.8,0,0,1,1.1-5.27,7.83,7.83,0,0,1,3.15-3.41,10.29,10.29,0,0,1,9.41-.12,7.87,7.87,0,0,1,3.13,3.11,11.28,11.28,0,0,1,1.35,4.82h-3.11a7.72,7.72,0,0,0-1-3.24,5.52,5.52,0,0,0-4.93-2.82,6.05,6.05,0,0,0-3.2.83,5.32,5.32,0,0,0-2.08,2.4,8.78,8.78,0,0,0-.73,3.7V85.49a8.74,8.74,0,0,0,.73,3.69,5.27,5.27,0,0,0,2.08,2.38,6,6,0,0,0,3.2.84,5.81,5.81,0,0,0,2.86-.72,5.51,5.51,0,0,0,2.07-2.08,7.76,7.76,0,0,0,1-3.27h3.11a11.1,11.1,0,0,1-1.36,4.82,8.06,8.06,0,0,1-3.12,3.12A9.33,9.33,0,0,1,414.39,95.35ZM383.94,84.52h13.59v2.89H383.94Zm4.73-20.86h3.75L401.82,95h-3.45l-7.83-28-7.83,28h-3.45Zm-21.34-5.78h3.11V61h-3.11Zm9.23,8.17L364.05,92.24h12.84V95H360.62V92.63l12.64-26.19H361V63.66h15.55ZM339.82,84.52h13.59v2.89H339.82Zm4.73-20.86h3.75L357.71,95h-3.46l-7.82-28-7.84,28h-3.44ZM323.23,80.79l2.81-1L332.55,95H328.9ZM313,63.64h3.11V95H313ZM315,78.87h8.26a5.55,5.55,0,0,0,2.74-.65,4.27,4.27,0,0,0,1.79-1.85,5.92,5.92,0,0,0,.63-2.81V71.94a6.21,6.21,0,0,0-.63-2.88A4.37,4.37,0,0,0,326,67.19a5.45,5.45,0,0,0-2.74-.66H315V63.64H323a9.67,9.67,0,0,1,4.48,1,6.89,6.89,0,0,1,2.93,2.8,8.76,8.76,0,0,1,1,4.32v1.83a8.92,8.92,0,0,1-1,4.36,6.92,6.92,0,0,1-2.93,2.84,9.52,9.52,0,0,1-4.48,1H315ZM291.54,63.66h18.68v2.89H291.54Zm7.79,1.92h3.1V95h-3.1ZM280.09,95.35a13.59,13.59,0,0,1-4.41-.66,7.74,7.74,0,0,1-3.23-2.08,8,8,0,0,1-1.87-3.67l2.93-1.1a5.83,5.83,0,0,0,2.37,3.53,7.57,7.57,0,0,0,4.21,1.11,7.34,7.34,0,0,0,4.78-1.36,4.79,4.79,0,0,0,1.67-3.94v-.93a4.33,4.33,0,0,0-.83-2.73,5.62,5.62,0,0,0-2.07-1.69,29.75,29.75,0,0,0-3.32-1.28l-.13,0-.12-.05-.56-.19a31.62,31.62,0,0,1-4.3-1.6,7.29,7.29,0,0,1-2.75-2.3,6.54,6.54,0,0,1-1.13-4v-.78a8.68,8.68,0,0,1,1.08-4.49,6.89,6.89,0,0,1,3.16-2.78,12.42,12.42,0,0,1,5.12-.94,11.57,11.57,0,0,1,4,.64,6.58,6.58,0,0,1,2.77,2,9.27,9.27,0,0,1,1.69,3.48l-2.9,1.08a6.41,6.41,0,0,0-2.06-3.3,5.7,5.7,0,0,0-3.54-1A7.15,7.15,0,0,0,276,67.55a4.76,4.76,0,0,0-1.62,3.88v.77a3.93,3.93,0,0,0,.92,2.7,6.22,6.22,0,0,0,2.27,1.61,36.94,36.94,0,0,0,3.67,1.3l.19,0,.14.07.21.07.19.06a22.3,22.3,0,0,1,3.94,1.59,7.4,7.4,0,0,1,2.63,2.44,7.13,7.13,0,0,1,1.05,4v1a8.76,8.76,0,0,1-1.09,4.51,6.81,6.81,0,0,1-3.22,2.77A12.92,12.92,0,0,1,280.09,95.35Z"/><path class="cls-2" d="M211.32,69.42a4.07,4.07,0,0,1,3.2,1.27,4.22,4.22,0,1,1-6.86,4.71,4.72,4.72,0,0,1-.4-1.7,4.9,4.9,0,0,1,.34-1.7A4.1,4.1,0,0,1,209,70.24a4.17,4.17,0,0,1,2.33-.82m-6.9,4.1A7,7,0,0,0,206,78.21c.18.22,1,1,1,1h-6.58c-.17,0-.31,0-.31.14v4.06h7.08v3.84a8.8,8.8,0,0,1-.48,1.17L203.44,96a3.35,3.35,0,0,0-.25.62,3.06,3.06,0,0,1,.51.21c.62.27,3.58,1.6,3.78,1.61l2.06-4.74c.56-1.25,1.43-3.2,1.94-4.45.06-.14.05-.19.16-.3a2.92,2.92,0,0,0,.23.58c.38.93,3.71,8.6,3.92,9,.47-.25,4.12-1.82,4.25-1.83,0-.34-1.79-4.18-2.1-4.94,0-.06-2.1-4.77-2.1-4.92V83.42h7v-4.2h-6.81c.16-.23.45-.37.75-.75.1-.12.15-.15.24-.27a7.09,7.09,0,0,0,.33-8.56c-.13-.18-.24-.31-.38-.49a7,7,0,0,0-4.6-2.52,7.15,7.15,0,0,0-5.84,2A7,7,0,0,0,204.42,73.52Z"/><path class="cls-2" d="M208.35,65.69a6.39,6.39,0,0,1-.59,1.2c.24,0,.28-.14.65-.28l.25-.09.09,0a9.15,9.15,0,0,1,1.05-.33,7.57,7.57,0,0,1,4.66.4,6.83,6.83,0,0,1,2,1.22c0-.14,0-.18-.1-.31A8.57,8.57,0,0,0,215,65.61a2.41,2.41,0,0,1-.71-1.1,12.41,12.41,0,0,1-.25-1.3,5.94,5.94,0,0,0-.86,2.31c-1.7-.79-.95-4.25-.89-5.61.1.07-1.46,1-1.76,2.44-.17.84-.24,1.71-.29,1.89s-.13.5-.21.7c-.06-.09-.06-.12-.13-.23l-.17-.24a2,2,0,0,0-1.73-.63c0,.16.17.22.28.38a1.25,1.25,0,0,1,.2.4,1.84,1.84,0,0,1-.09,1.07"/><path class="cls-2" d="M188.32,69.42a4.07,4.07,0,0,0-3.2,1.27A4.22,4.22,0,1,0,192,75.4a4.72,4.72,0,0,0,.4-1.7A4.9,4.9,0,0,0,192,72a4.1,4.1,0,0,0-1.39-1.76,4.17,4.17,0,0,0-2.33-.82m6.9,4.1a7,7,0,0,1-1.61,4.69c-.18.22-1,1-1,1h6.58c.17,0,.31,0,.31.14v4.06h-7.08v3.84a10.39,10.39,0,0,0,.48,1.17L196.2,96a3.35,3.35,0,0,1,.25.62,3.06,3.06,0,0,0-.51.21c-.62.27-3.58,1.6-3.78,1.61L190.1,93.7c-.56-1.25-1.43-3.2-1.94-4.45A.59.59,0,0,0,188,89a2.92,2.92,0,0,1-.23.58c-.38.93-3.71,8.6-3.92,9-.47-.25-4.12-1.82-4.25-1.83,0-.34,1.79-4.18,2.1-4.94,0-.06,2.1-4.77,2.1-4.92V83.42h-7v-4.2h6.81c-.16-.23-.45-.37-.75-.75-.1-.12-.15-.15-.24-.27a7.09,7.09,0,0,1-.33-8.56c.13-.18.24-.31.38-.49a7,7,0,0,1,4.6-2.52,7.15,7.15,0,0,1,5.84,2A7,7,0,0,1,195.22,73.52Z"/><path class="cls-2" d="M181.84,68a5.94,5.94,0,0,0,1.32-.14c-.06.23-.22.21-.48.51l-.17.2s0,0-.07.07a8.16,8.16,0,0,0-.67.88,7.47,7.47,0,0,0-1.25,4.5,6.83,6.83,0,0,0,.45,2.28c-.14,0-.16-.08-.25-.2a8.57,8.57,0,0,1-1.26-1.93,2.29,2.29,0,0,0-.78-1.05c-.5-.41-1.05-.59-1.13-.7a6.18,6.18,0,0,1,2.46,0c-.06-.75-1.18-.69-1.8-1.07-1.36-.81-2.26-1.79-2-3.51,0-.24,0-.2.12-.3a3.33,3.33,0,0,0,.6.86c.83.85,1.8.74,2.91.82.26,0,.52,0,.73,0-.06-.09-.09-.1-.16-.2l-.17-.24a2,2,0,0,1,0-1.84c.13.1.15.23.26.39a1,1,0,0,0,.31.32,1.8,1.8,0,0,0,1,.3"/><path class="cls-2" d="M234.83,69.42a4.07,4.07,0,0,1,3.2,1.27,4.22,4.22,0,1,1-6.86,4.71,4.72,4.72,0,0,1-.4-1.7,4.9,4.9,0,0,1,.34-1.7,4.1,4.1,0,0,1,1.39-1.76,4.17,4.17,0,0,1,2.33-.82m-6.9,4.1a7,7,0,0,0,1.61,4.69c.18.22,1,1,1,1H224c-.17,0-.31,0-.31.14v4.06h7.08v3.84a10.39,10.39,0,0,1-.48,1.17L227,96a2.78,2.78,0,0,0-.25.62,3.06,3.06,0,0,1,.51.21c.62.27,3.58,1.6,3.78,1.61l2.06-4.74c.56-1.25,1.43-3.2,1.94-4.45a.66.66,0,0,1,.15-.3,3.72,3.72,0,0,0,.24.58c.38.93,3.71,8.6,3.92,9,.47-.25,4.12-1.82,4.25-1.83,0-.34-1.79-4.18-2.1-4.94,0-.06-2.1-4.77-2.1-4.92V83.42h7v-4.2h-6.81c.16-.23.45-.37.75-.75.1-.12.15-.15.24-.27a7.09,7.09,0,0,0,.33-8.56c-.13-.18-.24-.31-.38-.49a7,7,0,0,0-4.6-2.52,7.15,7.15,0,0,0-5.84,2A7,7,0,0,0,227.93,73.52Z"/><path class="cls-2" d="M241.31,68a5.94,5.94,0,0,1-1.32-.14c.06.23.22.21.48.51l.17.2s0,0,.07.07a8.16,8.16,0,0,1,.67.88,7.47,7.47,0,0,1,1.25,4.5,6.83,6.83,0,0,1-.45,2.28c.14,0,.16-.08.25-.2a8.57,8.57,0,0,0,1.26-1.93,2.29,2.29,0,0,1,.78-1.05c.5-.41,1.05-.59,1.13-.7a6.18,6.18,0,0,0-2.46,0c.06-.75,1.18-.69,1.8-1.07,1.36-.81,2.26-1.79,2-3.51,0-.24,0-.2-.12-.3a3.33,3.33,0,0,1-.6.86c-.83.85-1.8.74-2.91.82-.26,0-.52,0-.73,0,.06-.09.09-.1.16-.2l.17-.24a2,2,0,0,0,0-1.84c-.13.1-.15.23-.26.39a1,1,0,0,1-.31.32,1.8,1.8,0,0,1-1,.3"/><path class="cls-2" d="M229.77,28.86a36.87,36.87,0,0,0,1.7,4.27,48.63,48.63,0,0,0-43.21,1.71A37.26,37.26,0,0,1,194.84,27a12.44,12.44,0,0,0,4-5.63c1.26-3.2,1.25-6.28,1.65-6.83,3.74,6.19,2.85,8.46,4,12.4,3.69-1.54,1.57-7.11,2.43-10.84,1.88-8.15,5.34-14.31,14.43-15.83,1.21-.2,1-.43,1.68.09-1,.62-2.79,3.41-3.33,4.44-2.92,5.58-.79,10.29.59,16,.31,1.29.6,2.67.94,3.74.37-.46.38-.62.75-1.15a15.41,15.41,0,0,1,1-1.23c2.23-2.68,6.18-3.36,9.26-2.95-.27.81-.91,1.12-1.53,1.91a6.7,6.7,0,0,0-1.14,2.1,9.51,9.51,0,0,0,.22,5.67"/><path class="cls-3" d="M211.57,30.69A48.54,48.54,0,1,1,169.24,103h3.56a45.44,45.44,0,1,0-6.74-23.82c0,.73,0,1.45.05,2.17h-3c0-.7-.05-1.39-.05-2.1a48.53,48.53,0,0,1,48.53-48.53"/><path class="cls-3" d="M162.34,81.21h4.86A.81.81,0,0,1,168,82V85a.81.81,0,0,1-.81.81h-4.86a.81.81,0,0,1-.81-.81V82a.82.82,0,0,1,.81-.81m.06,14.47-.87-7.18c-.15-1.28.09-1.62,1-1.79a19.77,19.77,0,0,1,4.35,0c.91.17,1.15.51,1,1.79L167,95.68C165.3,95.71,164.1,95.71,162.4,95.68ZM161,96.75h7.17a.5.5,0,0,1,.49.49V98a.5.5,0,0,1-.49.49H161a.49.49,0,0,1-.49-.49v-.71A.49.49,0,0,1,161,96.75Z"/></g></g></svg>