<?xml version="1.0" standalone="no"?><svg xmlns="http://www.w3.org/2000/svg" viewBox="0 0 1440 320"><path fill="#7510F7" fill-opacity="1" d="M0,160L40,154.7C80,149,160,139,240,149.3C320,160,400,192,480,218.7C560,245,640,267,720,277.3C800,288,880,288,960,261.3C1040,235,1120,181,1200,176C1280,171,1360,213,1400,234.7L1440,256L1440,320L1400,320C1360,320,1280,320,1200,320C1120,320,1040,320,960,320C880,320,800,320,720,320C640,320,560,320,480,320C400,320,320,320,240,320C160,320,80,320,40,320L0,320Z"></path></svg>