<?xml version="1.0" standalone="no"?><svg xmlns="http://www.w3.org/2000/svg" viewBox="0 0 1440 320"><path fill="#7510F7" fill-opacity="1" d="M0,192L34.3,176C68.6,160,137,128,206,122.7C274.3,117,343,139,411,165.3C480,192,549,224,617,208C685.7,192,754,128,823,112C891.4,96,960,128,1029,160C1097.1,192,1166,224,1234,229.3C1302.9,235,1371,213,1406,202.7L1440,192L1440,320L1405.7,320C1371.4,320,1303,320,1234,320C1165.7,320,1097,320,1029,320C960,320,891,320,823,320C754.3,320,686,320,617,320C548.6,320,480,320,411,320C342.9,320,274,320,206,320C137.1,320,69,320,34,320L0,320Z"></path></svg>